# xmcd CD database file
#
# Track frame offsets:
#	183
#	13620
#	27093
#	40468
#	51160
#	64390
#	74093
#	90248
#	100260
#	116340
#	129995
#	144785
#	157740
#	169838
#	187625
#	201950
#	220650
#	232633
#
# Disc length: 3313 seconds
#
# Revision: 2
# Processed by: cddbd v1.4b41PL1 Copyright (c) Steve Scherf et al.
# Submitted via: Feurio! 1.50.2ß - http://www.feurio.com
#
DISCID=e30cef12
DTITLE=Lynn Anderson - The Country Store Collection
DYEAR=1900
DGENRE=
TTITLE0=Rose Garden
TTITLE1=Top of the World
TTITLE2=Sweet talking Man
TTITLE3=It's only make believe
TTITLE4=Honey come back
TTITLE5=Stay there ´til i get there
TTITLE6=For the good Times
TTITLE7=Snowbird
TTITLE8=Sea of Heartbreak
TTITLE9=Even Cowgirls get the Blues
TTITLE10=I love how you love me
TTITLE11=Love me tonight
TTITLE12=You're my Man
TTITLE13=Sunday Morning coming Down
TTITLE14=Cry
TTITLE15=Bedtime Story
TTITLE16=You're my Man
TTITLE17=Killing me softly with his Song
EXTD=
EXTT0=
EXTT1=
EXTT2=
EXTT3=
EXTT4=
EXTT5=
EXTT6=
EXTT7=
EXTT8=
EXTT9=
EXTT10=
EXTT11=
EXTT12=
EXTT13=
EXTT14=
EXTT15=
EXTT16=
EXTT17=
PLAYORDER=
